<svg width="386" height="165" viewBox="0 0 386 165" fill="none" xmlns="http://www.w3.org/2000/svg">
<path d="M218.536 58.528C215.944 58.528 213.544 58.096 211.336 57.232C209.128 56.336 207.192 55.104 205.528 53.536C203.896 51.936 202.616 50.064 201.688 47.92C200.792 45.776 200.344 43.456 200.344 40.96C200.344 38.432 200.792 36.112 201.688 34C202.616 31.856 203.896 30 205.528 28.432C207.192 26.864 209.112 25.632 211.288 24.736C213.496 23.84 215.88 23.392 218.44 23.392C221.128 23.392 223.544 23.824 225.688 24.688C227.832 25.52 229.72 26.688 231.352 28.192L225.592 33.952C224.792 33.056 223.8 32.352 222.616 31.84C221.432 31.328 220.04 31.072 218.44 31.072C217.064 31.072 215.8 31.296 214.648 31.744C213.528 32.192 212.552 32.864 211.72 33.76C210.888 34.624 210.232 35.664 209.752 36.88C209.304 38.096 209.08 39.456 209.08 40.96C209.08 42.464 209.304 43.824 209.752 45.04C210.232 46.256 210.888 47.312 211.72 48.208C212.552 49.072 213.528 49.744 214.648 50.224C215.8 50.672 217.064 50.896 218.44 50.896C220.04 50.896 221.448 50.656 222.664 50.176C223.88 49.664 224.92 48.944 225.784 48.016L231.544 53.776C229.88 55.28 227.992 56.448 225.88 57.28C223.8 58.112 221.352 58.528 218.536 58.528ZM244.006 58.48C241.83 58.48 239.894 57.952 238.198 56.896C236.502 55.84 235.174 54.4 234.214 52.576C233.254 50.72 232.774 48.624 232.774 46.288C232.774 43.92 233.254 41.808 234.214 39.952C235.174 38.096 236.502 36.656 238.198 35.632C239.894 34.576 241.83 34.048 244.006 34.048C245.478 34.048 246.822 34.32 248.038 34.864C249.254 35.376 250.246 36.112 251.014 37.072C251.814 38.032 252.294 39.12 252.454 40.336V52.144C252.294 53.392 251.814 54.496 251.014 55.456C250.246 56.384 249.254 57.12 248.038 57.664C246.822 58.208 245.478 58.48 244.006 58.48ZM245.782 51.04C247.158 51.04 248.262 50.592 249.094 49.696C249.958 48.8 250.39 47.648 250.39 46.24C250.39 45.312 250.198 44.496 249.814 43.792C249.43 43.088 248.886 42.528 248.182 42.112C247.51 41.696 246.726 41.488 245.83 41.488C244.934 41.488 244.134 41.696 243.43 42.112C242.758 42.528 242.214 43.104 241.798 43.84C241.414 44.544 241.222 45.344 241.222 46.24C241.222 47.168 241.414 48 241.798 48.736C242.182 49.44 242.726 50 243.43 50.416C244.134 50.832 244.918 51.04 245.782 51.04ZM250.054 58V51.712L251.254 45.952L250.054 40.288V34.528H258.262V58H250.054ZM263.136 58V34.528H271.488V58H263.136ZM271.488 45.232L267.743 42.064C268.672 39.408 269.904 37.408 271.44 36.064C272.976 34.72 274.976 34.048 277.44 34.048C278.56 34.048 279.52 34.192 280.32 34.48C281.152 34.768 281.856 35.216 282.432 35.824L277.584 42.304C277.328 42.016 276.96 41.792 276.48 41.632C276.032 41.44 275.52 41.344 274.944 41.344C273.856 41.344 273.008 41.68 272.4 42.352C271.792 42.992 271.488 43.952 271.488 45.232ZM287.586 58V24.832H295.938V58H287.586ZM282.402 41.488V34.528H301.122V41.488H282.402ZM315.25 58.528C312.722 58.528 310.466 58 308.482 56.944C306.53 55.856 304.978 54.384 303.826 52.528C302.674 50.64 302.098 48.528 302.098 46.192C302.098 43.856 302.658 41.776 303.778 39.952C304.93 38.096 306.498 36.64 308.482 35.584C310.466 34.496 312.706 33.952 315.202 33.952C317.698 33.952 319.922 34.496 321.874 35.584C323.858 36.64 325.426 38.096 326.578 39.952C327.73 41.776 328.306 43.856 328.306 46.192C328.306 48.528 327.73 50.64 326.578 52.528C325.458 54.384 323.906 55.856 321.922 56.944C319.97 58 317.746 58.528 315.25 58.528ZM315.202 51.088C316.13 51.088 316.93 50.896 317.602 50.512C318.306 50.096 318.85 49.52 319.234 48.784C319.618 48.048 319.81 47.2 319.81 46.24C319.81 45.28 319.602 44.448 319.186 43.744C318.802 43.008 318.274 42.448 317.602 42.064C316.93 41.648 316.13 41.44 315.202 41.44C314.306 41.44 313.506 41.648 312.802 42.064C312.098 42.48 311.554 43.056 311.17 43.792C310.786 44.496 310.594 45.328 310.594 46.288C310.594 47.216 310.786 48.048 311.17 48.784C311.554 49.52 312.098 50.096 312.802 50.512C313.506 50.896 314.306 51.088 315.202 51.088ZM343.188 58.528C340.66 58.528 338.404 58 336.42 56.944C334.468 55.856 332.916 54.384 331.764 52.528C330.612 50.64 330.036 48.528 330.036 46.192C330.036 43.856 330.596 41.776 331.716 39.952C332.868 38.096 334.436 36.64 336.42 35.584C338.404 34.496 340.644 33.952 343.14 33.952C345.636 33.952 347.86 34.496 349.812 35.584C351.796 36.64 353.364 38.096 354.516 39.952C355.668 41.776 356.244 43.856 356.244 46.192C356.244 48.528 355.668 50.64 354.516 52.528C353.396 54.384 351.844 55.856 349.86 56.944C347.908 58 345.684 58.528 343.188 58.528ZM343.14 51.088C344.068 51.088 344.868 50.896 345.54 50.512C346.244 50.096 346.788 49.52 347.172 48.784C347.556 48.048 347.748 47.2 347.748 46.24C347.748 45.28 347.54 44.448 347.124 43.744C346.74 43.008 346.212 42.448 345.54 42.064C344.868 41.648 344.068 41.44 343.14 41.44C342.244 41.44 341.444 41.648 340.74 42.064C340.036 42.48 339.492 43.056 339.108 43.792C338.724 44.496 338.532 45.328 338.532 46.288C338.532 47.216 338.724 48.048 339.108 48.784C339.492 49.52 340.036 50.096 340.74 50.512C341.444 50.896 342.244 51.088 343.14 51.088ZM374.773 58V44.752C374.773 43.664 374.453 42.816 373.813 42.208C373.173 41.568 372.357 41.248 371.365 41.248C370.693 41.248 370.085 41.392 369.541 41.68C369.029 41.968 368.629 42.368 368.341 42.88C368.053 43.392 367.909 44.016 367.909 44.752L364.645 43.216C364.645 41.328 365.061 39.712 365.893 38.368C366.725 36.992 367.861 35.936 369.301 35.2C370.773 34.432 372.437 34.048 374.293 34.048C375.989 34.048 377.493 34.448 378.805 35.248C380.149 36.016 381.205 37.056 381.973 38.368C382.741 39.68 383.125 41.168 383.125 42.832V58H374.773ZM359.557 58V34.528H367.909V58H359.557Z" fill="white"/>
<path d="M204.664 131V62.648H223.864V131H204.664ZM245.944 131V62.648H265.144V131H245.944ZM215.128 104.12V88.184H253.432V104.12H215.128ZM297.789 132.152C293.181 132.152 289.085 131.256 285.501 129.464C281.981 127.672 279.197 125.176 277.148 121.976C275.101 118.776 274.077 115.128 274.077 111.032V83.768H292.893V111.224C292.893 112.184 293.085 113.048 293.469 113.816C293.917 114.584 294.493 115.192 295.197 115.64C295.965 116.024 296.829 116.216 297.789 116.216C299.133 116.216 300.253 115.768 301.149 114.872C302.109 113.912 302.589 112.696 302.589 111.224V83.768H321.405V111.032C321.405 115.192 320.381 118.872 318.333 122.072C316.349 125.208 313.565 127.672 309.981 129.464C306.461 131.256 302.397 132.152 297.789 132.152ZM358.225 131.96C355.409 131.96 352.753 131.416 350.257 130.328C347.761 129.24 345.649 127.8 343.921 126.008C342.193 124.152 341.073 122.136 340.561 119.96V93.848C341.073 91.672 342.193 89.752 343.921 88.088C345.649 86.424 347.761 85.144 350.257 84.248C352.753 83.288 355.409 82.808 358.225 82.808C362.897 82.808 366.961 83.864 370.417 85.976C373.937 88.024 376.657 90.904 378.577 94.616C380.561 98.328 381.553 102.584 381.553 107.384C381.553 112.184 380.561 116.44 378.577 120.152C376.657 123.8 373.937 126.68 370.417 128.792C366.961 130.904 362.897 131.96 358.225 131.96ZM329.137 131V60.728H347.953V95.384L344.881 106.808L347.473 118.328V131H329.137ZM354.769 115.448C356.305 115.448 357.649 115.096 358.801 114.392C360.017 113.688 360.945 112.728 361.585 111.512C362.289 110.296 362.641 108.92 362.641 107.384C362.641 105.848 362.289 104.472 361.585 103.256C360.945 102.04 360.017 101.08 358.801 100.376C357.585 99.672 356.209 99.32 354.673 99.32C353.137 99.32 351.761 99.672 350.545 100.376C349.393 101.08 348.497 102.04 347.857 103.256C347.217 104.408 346.897 105.784 346.897 107.384C346.897 108.984 347.217 110.392 347.857 111.608C348.561 112.824 349.489 113.784 350.641 114.488C351.857 115.128 353.233 115.448 354.769 115.448Z" fill="white"/>
<path fill-rule="evenodd" clip-rule="evenodd" d="M152.707 138.699C153.785 141.096 156.845 141.82 158.783 140.045C175.007 125.182 185 104.882 185 82.5C185 36.9365 143.586 0 92.5 0C41.4137 0 0 36.9365 0 82.5C0 124.565 35.2987 159.278 80.9189 164.36C83.0095 164.593 84.8749 163.09 85.1747 161.008L87.1465 147.315C87.4531 145.186 89.3967 143.687 91.5405 143.868C113.266 145.708 126.122 142.434 145.483 132.888C147.534 131.877 150.03 132.747 150.968 134.833L152.707 138.699ZM48 82C48 53.8335 73.7436 31 105.5 31C137.256 31 163 53.8335 163 82C163 96.9556 155.742 110.408 144.18 119.736C124.304 129.986 112.692 133.877 89.496 130.999C65.5266 124.85 48 105.241 48 82Z" fill="white"/>
<path d="M93.6588 100.339C94.252 100.616 94.846 100.855 95.4589 101.066C96.4126 101.393 97.541 101.596 98.6522 101.775C98.8512 101.807 99.0496 101.838 99.2468 101.869C100.168 102.015 101.063 102.156 101.871 102.351C102.86 102.589 103.635 102.888 104.125 103.306C104.362 103.508 104.526 103.733 104.619 103.989C104.713 104.246 104.748 104.564 104.684 104.968C104.663 105.1 104.637 105.241 104.604 105.395C104.464 106.048 104.145 106.581 103.689 106.925C103.238 107.265 102.613 107.451 101.797 107.343C91.7501 106.016 86.902 103.059 83.2696 99.0721C82.9645 98.7373 82.6817 98.1839 82.5316 97.5863C82.3795 96.9804 82.3878 96.4275 82.549 96.0674C83.1032 94.8296 84.3363 94.2486 85.2805 94.4601C85.8745 94.9051 86.493 95.394 87.136 95.9032C87.1591 95.9215 87.1822 95.9398 87.2054 95.9582C87.8537 96.4716 88.5255 97.0037 89.2115 97.5222C90.6298 98.5942 92.1308 99.6253 93.6588 100.339Z" fill="white" stroke="white"/>
<path d="M96.7909 71.7522C96.4757 68.1763 99.1191 65.0218 102.695 64.7067V64.7067C106.271 64.3915 109.426 67.0349 109.741 70.6109L110.926 84.0588L97.9761 85.2001L96.7909 71.7522Z" fill="white"/>
<path d="M134.644 68.4161C134.329 64.8401 136.972 61.6857 140.548 61.3705V61.3705C144.124 61.0553 147.279 63.6987 147.594 67.2747L148.779 80.7226L135.829 81.8639L134.644 68.4161Z" fill="white"/>
<path d="M18 73C22.155 71.8877 25.5 64 25.5 64C25.5 64 27.2114 71.3145 33 72.3077C26.9509 75.1922 25.5 82 25.5 82C25.5 82 22.8698 74.94 18 73Z" fill="black" stroke="black"/>
<path d="M31.6537 88.0847C33.3229 88.4887 35.9514 86.4174 35.9514 86.4174C35.9514 86.4174 35.2108 89.2479 37.069 90.6823C34.4065 90.5277 32.6441 92.5868 32.6441 92.5868C32.6441 92.5868 33.0141 89.67 31.6537 88.0847Z" fill="black" stroke="black"/>
</svg>
