<svg width="316" height="298" viewBox="0 0 316 298" fill="none" xmlns="http://www.w3.org/2000/svg">
<path d="M172.929 3.53798C170.929 6.73798 170.929 7.40465 172.663 10.6047C176.529 17.538 185.863 15.2713 185.863 7.40465C185.863 -0.195349 177.063 -2.72868 172.929 3.53798Z" fill="white"/>
<path d="M248.929 20.8715C246.129 23.6715 245.729 25.1382 246.263 29.1382C247.329 35.6715 251.329 39.2715 257.329 39.2715C266.796 39.2715 271.729 28.4715 265.729 20.8715C261.863 16.0715 253.863 15.9382 248.929 20.8715Z" fill="white"/>
<path d="M63.5961 23.5378C52.3961 29.1378 57.1961 46.7378 69.8627 46.7378C75.5961 46.7378 81.1961 42.3378 82.6627 36.8711C83.8627 32.0711 80.9294 25.6711 76.3961 23.4045C71.5961 20.8711 68.9294 20.8711 63.5961 23.5378Z" fill="white"/>
<path d="M158.663 36.2045C153.596 36.7378 145.329 38.2045 140.263 39.4045C129.729 42.0712 101.996 55.5378 95.4627 61.2712L91.0627 65.1378L96.7961 63.9378C105.863 62.2045 121.729 62.6045 134.929 64.8712L147.196 67.0045L154.263 60.6045C161.329 54.2045 179.063 44.7378 186.796 43.2712C192.663 42.0712 194.663 46.2045 189.729 49.2712C184.263 52.8712 173.729 63.1378 171.863 66.7378C168.129 73.8045 168.796 76.0712 175.196 79.6712C207.063 97.6712 231.596 136.071 234.796 173.004L235.596 182.604L243.596 175.804C271.463 151.538 289.863 125.804 289.863 110.604C289.863 105.671 289.196 103.938 286.263 101.138C278.529 93.9378 266.929 90.3378 243.863 88.0712C235.596 87.2712 227.863 85.6712 226.263 84.6045C221.729 81.6712 222.263 75.8045 227.196 71.5378C232.263 67.2712 238.263 66.2045 250.663 67.1378C256.796 67.5378 260.263 67.4045 259.729 66.6045C256.129 60.6045 229.996 46.3378 213.196 41.0045C195.729 35.5378 177.863 33.9378 158.663 36.2045ZM254.396 120.071C257.996 123.538 257.729 130.471 253.996 133.671C249.729 137.004 245.063 136.738 241.196 132.738C231.729 123.404 244.796 110.871 254.396 120.071Z" fill="white"/>
<path d="M302.262 42.7381C295.862 45.2714 295.196 53.0048 301.196 56.8714C308.662 61.8048 317.729 52.0714 312.262 45.1381C309.996 42.3381 305.862 41.2714 302.262 42.7381Z" fill="white"/>
<path d="M35.9962 69.5378C33.3295 71.6711 32.5295 73.4045 32.5295 77.4045C32.5295 84.7378 36.1295 88.7378 43.0629 88.7378C49.4629 88.7378 53.3295 85.5378 54.6629 79.1378C55.3295 75.5378 54.7962 74.2045 51.4629 70.7378C46.6629 65.9378 41.1962 65.5378 35.9962 69.5378Z" fill="white"/>
<path d="M307.196 82.0711C304.529 85.2711 307.196 88.7378 311.996 88.7378C315.463 88.7378 315.863 88.2045 315.863 84.7378C315.863 81.4045 315.329 80.6045 312.396 80.3378C310.396 80.0711 308.263 80.8711 307.196 82.0711Z" fill="white"/>
<path d="M91.9962 85.4048C87.7295 86.0715 80.6628 87.6715 76.3962 88.8715C69.5962 90.7381 67.8628 91.9381 63.9962 97.2715C51.7295 114.205 44.7962 131.805 43.4628 150.338C42.9295 157.138 42.7962 162.205 43.3295 161.671C43.7295 161.138 47.3295 156.071 51.1962 150.338C64.3962 131.005 88.3962 111.138 107.063 103.938C119.596 99.2715 124.396 98.6048 127.33 101.538C131.73 105.938 131.33 106.471 116.53 116.338C85.5962 137.005 58.6628 174.471 53.5962 203.938C51.4628 216.338 52.9295 222.071 59.7295 228.871C67.5962 236.871 76.5295 239.271 97.8628 239.271C116.53 239.271 129.996 237.005 149.196 230.471C177.063 221.005 208.796 204.205 211.463 197.671C213.33 192.738 211.73 171.138 208.53 158.471C199.73 123.671 170.796 96.6048 132.263 87.2715C122.13 84.8715 101.73 83.9381 91.9962 85.4048ZM97.8628 197.405C101.063 200.605 101.33 207.671 98.2628 211.005C93.4628 216.338 83.1962 211.805 83.1962 204.471C83.1962 200.605 88.7962 194.738 92.5295 194.738C93.9962 194.738 96.3962 195.938 97.8628 197.405Z" fill="white"/>
<path d="M295.863 162.871C284.663 181.805 254.929 213.005 240.796 220.738C232.929 225.005 230.129 228.738 226.529 239.405C219.729 259.805 208.129 280.338 195.996 293.138L191.863 297.671L197.196 296.738C213.863 293.671 235.463 284.471 253.329 272.605C257.463 269.805 266.263 261.538 272.663 254.205C286.529 238.738 295.729 221.671 301.196 201.138C304.929 187.538 306.796 164.605 304.929 155.138L303.863 149.405L295.863 162.871ZM269.329 226.205C272.263 230.605 270.663 235.805 265.596 238.605C262.263 240.471 261.729 240.471 258.263 237.938C253.729 234.605 252.929 230.338 255.729 225.938C258.796 221.271 266.263 221.405 269.329 226.205Z" fill="white"/>
<path d="M2.92935 154.871C0.129352 156.471 -0.270648 162.738 2.12935 165.138C3.06269 166.071 5.32935 166.738 7.19602 166.738C11.4627 166.738 13.8627 164.471 13.8627 160.604C13.8627 154.738 8.12935 151.804 2.92935 154.871Z" fill="white"/>
<path d="M185.196 253.405C157.863 266.738 127.863 274.205 105.063 273.271C94.1293 272.738 93.9959 272.738 96.9293 275.138C98.5293 276.471 106.529 280.738 114.529 284.738C128.929 291.671 139.729 295.138 153.329 296.871C159.863 297.671 160.263 297.538 167.996 291.138C176.529 284.071 184.396 274.338 191.063 263.005C194.663 256.871 199.596 246.471 198.796 246.871C198.663 246.871 192.529 249.805 185.196 253.405Z" fill="white"/>
</svg>
